v 24 4.80000019073486 -20
v 24 14.4000005722046 -20
v 8 14.4000005722046 -36
v 8 4.80000019073486 -36
v -8 4.80000019073486 -36
v -8 14.4000005722046 -36
v -24 14.4000005722046 -20
v -24 4.80000019073486 -20
v 24 4.80000019073486 -4
v 24 14.4000005722046 -4
v 8 4.80000019073486 12
v 8 14.4000005722046 12
v -24 4.80000019073486 -4
v -24 14.4000005722046 -4
v -8 14.4000005722046 12
v -8 4.80000019073486 12
v -4 12.0000004768372 12
v -4 7.20000028610229 12
v 4 7.20000028610229 12
v 4 12.0000004768372 12
v 2 4.80000019073486 36
v 2 14.4000005722046 36
v 4 12.0000004768372 36
v 4 7.20000028610229 36
v -2 4.80000019073486 36
v -2 14.4000005722046 36
v -4 7.20000028610229 36
v -4 12.0000004768372 36
v 12 16.800000667572 -22
v 12 55.2000021934509 -22
v 11 55.2000021934509 -22
v 11 16.800000667572 -22
v 11 55.2000021934509 -21
v 11 16.800000667572 -21
v 12 55.2000021934509 -21
v 12 16.800000667572 -21
v 8 0 -8
v 7 0 -1
v 12 0 -6
v 8 0 -28
v 8 16.800000667572 -28
v 12 0 -22
v 12 0 -21
v 15 0 -21
v 16 0 -20
v 11 0 -21
v 16 0 -6
v 14 0 -6
v 9 0 -26
v 8 0 2
v 16 0 -4
v 8 0 4
v 11 0 -22
v -8 0 2
v -8 0 4
v -14 0 -6
v -16 0 -4
v -9 0 -26
v -16 0 -20
v -8 0 -28
v 15 16.800000667572 -21
v 16 16.800000667572 -20
v 16 16.800000667572 -6
v 14 16.800000667572 -6
v 9 16.800000667572 -26
v 8 16.800000667572 2
v 16 16.800000667572 -4
v 8 16.800000667572 4
v -8 16.800000667572 2
v -8 16.800000667572 4
v -14 16.800000667572 -6
v -16 16.800000667572 -4
v -9 16.800000667572 -26
v -16 16.800000667572 -20
v -8 16.800000667572 -28
v 0 0 4
v 2 4.80000019073486 12
v 0 16.800000667572 4
v 2 14.4000005722046 12
v -2 4.80000019073486 12
v -2 14.4000005722046 12
v -8 0 -24
v -6 0 -17
v 6 0 -17
v -12 0 -6
v -8 0 0
v -7 0 -1
v 8 0 0
v 8 0 -24
v -8 0 -8
v 0 0 -9
v 8 24.0000009536743 -8
v 12 16.800000667572 -6
v 7 26.4000010490417 -1
v -8 16.800000667572 -24
v 6 21.6000008583069 -17
v -6 21.6000008583069 -17
v -12 16.800000667572 -6
v -7 26.4000010490417 -1
v -8 16.800000667572 0
v 8 16.800000667572 0
v 8 16.800000667572 -24
v -8 24.0000009536743 -8
v 0 25.200001001358 -9
vn -0.707106781186547 0 0.707106781186547
vn 0.707106781186547 0 0.707106781186547
vn -1 0 0
vn 0 0 1
vn -0.707106781186547 0 -0.707106781186547
vn 0.707106781186547 0 -0.707106781186547
vn 1 0 0
vn 0 0 -1
vn 0 1 0
vn -0.408248290463863 0.816496580927726 0.408248290463863
vn -0.235702260395516 -0.942809041582063 0.235702260395516
vn 0 -1 0
vn 0.408248290463863 0.816496580927726 0.408248290463863
vn 0.235702260395516 -0.942809041582063 0.235702260395516
vn -0.447213595499958 0.894427190999916 0
vn -0.242535625036333 -0.970142500145332 0
vn 0 0.894427190999916 0.447213595499958
vn 0 -0.970142500145332 0.242535625036333
vn -0.408248290463863 0.816496580927726 -0.408248290463863
vn -0.235702260395516 -0.942809041582063 -0.235702260395516
vn 0.408248290463863 0.816496580927726 -0.408248290463863
vn 0.235702260395516 -0.942809041582063 -0.235702260395516
vn 0.447213595499958 0.894427190999916 0
vn 0.242535625036333 -0.970142500145332 0
vn -0.696310623822791 0.696310623822791 -0.174077655955698
vn -0.707106781186547 -0.707106781186547 0
vn 0 0.894427190999916 -0.447213595499958
vn 0 -0.970142500145332 -0.242535625036333
vn 0.696310623822791 0.696310623822791 -0.174077655955698
vn 0.707106781186547 -0.707106781186547 0
vn 0 0.8 -0.6
vn 0 -0.894427190999916 -0.447213595499958
vn -0.436435780471985 -0.87287156094397 -0.218217890235992
vn 0.436435780471985 -0.87287156094397 -0.218217890235992
vn -0.837055704033865 -0.545905893935129 0.0363937262623419
vn 0 -0.868243142124459 0.496138938356834
vn 0.819824382822186 -0.170796746421289 -0.546549588548124
vn -0.819824382822186 -0.170796746421289 -0.546549588548124
vn -0.737308728467136 -0.655385536415232 0.163846384103808
vn 0.737308728467136 -0.655385536415232 0.163846384103808
vn 0.837055704033865 -0.545905893935129 0.0363937262623419
vn -0.838206303873316 -0.462458650412864 0.28903665650804
vn 0 -0.992277876713668 0.124034734589208
vn -0.15045922843089 -0.957467817287481 0.246206010159638
vn 0.150946381627988 -0.955993750310593 0.251577302713314
vn 0 -0.936329177569045 0.351123441588392
vn 0.15045922843089 -0.957467817287481 0.246206010159638
vn 0.838206303873316 -0.462458650412864 0.28903665650804
vn -0.150946381627988 -0.955993750310593 0.251577302713314
vn -0.707106781186548 0.707106781186548 0
vn -0.707106781186548 -0.707106781186548 0
vn 0.707106781186548 0.707106781186548 0
vn 0.707106781186548 -0.707106781186548 0
vn 0 -0.124034734589208 -0.992277876713668
vn 0 -0.124034734589208 -0.992277876713668
vt 0.3046875 6.938894E-17
vt 0.3046875 0.0625
vt 0.125 0.0625
vt 0.125 6.938894E-17
vt -2.775558E-17 6.938894E-17
vt -2.775558E-17 0.0625
vt -0.1796875 0.0625
vt -0.1796875 6.938894E-17
vt 0.4296875 -2.775558E-17
vt 0.4296875 0.0625
vt 0.3046875 -2.775558E-17
vt 0.125 1.387779E-17
vt 0 0.0625
vt 0 1.387779E-17
vt 0.609375 6.938894E-17
vt 0.609375 0.0625
vt 0.4296875 6.938894E-17
vt -0.3046875 -1.249001E-16
vt -0.3046875 0.0625
vt -0.484375 0.0625
vt -0.484375 -9.714451E-17
vt -0.1796875 -2.775558E-17
vt -0.3046875 -2.775558E-17
vt -0.484375 6.938894E-17
vt -0.515625 0.046875
vt -0.515625 0.015625
vt 0.640625 0.015625
vt 0.640625 0.046875
vt 0.609375 -9.714451E-17
vt 0.25 -1
vt 0.25 0
vt 0 -0.25
vt 0 -0.75
vt 0.75 -1
vt 0.75 0
vt 1 -0.75
vt 1 -0.25
vt 0.25 -0.25
vt 0.25 -0.75
vt -0.75 -1.75
vt -0.75 -1.25
vt 0 -1.25
vt 0 -1.75
vt 0.625 -1.0625
vt 0.625 -0.8125
vt 0.5 -0.8125
vt 0.5 -1.0625
vt 2.65625 0.65625
vt 2.648438 0.6015625
vt 2.6875 0.640625
vt 2.65625 0.875
vt 2.65625 0.8125
vt 2.78125 0.75
vt 2.65625 -0.125
vt 2.78125 -0.25
vt 2.65625 -0.1875
vt 2.6875 0.765625
vt 2.6875 0.7578125
vt 2.710938 0.7578125
vt 2.71875 0.75
vt 2.679688 0.7578125
vt 2.71875 0.640625
vt 2.703125 0.640625
vt 2.664063 0.796875
vt 2.65625 0.578125
vt 2.71875 0.625
vt 2.65625 0.5625
vt 2.679688 0.765625
vt 2.53125 0.578125
vt 2.53125 0.5625
vt 2.484375 0.640625
vt 2.46875 0.625
vt 2.523438 0.796875
vt 2.46875 0.75
vt 2.53125 0.8125
vt 2.6875 -0.234375
vt 2.710938 -0.2421875
vt 2.6875 -0.2421875
vt 2.71875 -0.25
vt 2.679688 -0.2421875
vt 2.71875 -0.359375
vt 2.703125 -0.359375
vt 2.664063 -0.203125
vt 2.65625 -0.421875
vt 2.71875 -0.375
vt 2.65625 -0.4375
vt 2.679688 -0.234375
vt 2.53125 -0.421875
vt 2.53125 -0.4375
vt 2.484375 -0.359375
vt 2.46875 -0.375
vt 2.523438 -0.203125
vt 2.46875 -0.25
vt 2.53125 -0.1875
vt 2.40625 0.75
vt 2.53125 0.875
vt 2.40625 -0.25
vt 2.53125 -0.125
vt 2.78125 0.625
vt 2.78125 -0.375
vt 2.65625 0.5
vt 2.65625 -0.5
vt 2.40625 0.625
vt 2.53125 0.5
vt 2.53125 -0.5
vt 2.40625 -0.375
vt 2.59375 0.5625
vt 2.609375 0.5
vt 2.625 0.5
vt 2.59375 -0.4375
vt 2.625 -0.5
vt 2.609375 -0.5
vt 2.578125 0.5
vt 2.578125 -0.5
vt 2.5625 0.5
vt 2.5625 -0.5
vt 2.53125 0.78125
vt 2.546875 0.7265625
vt 2.640625 0.7265625
vt 2.5 0.640625
vt 2.53125 0.59375
vt 2.539063 0.6015625
vt 2.65625 0.59375
vt 2.65625 0.78125
vt 2.53125 0.65625
vt 2.59375 0.6640625
vt 5.3125 -0.6875
vt 5.375 -0.71875
vt 5.296875 -0.796875
vt 5.0625 -0.4375
vt 5.28125 -0.546875
vt 5.09375 -0.546875
vt 5 -0.71875
vt 5.078125 -0.796875
vt 5.0625 -0.8125
vt 5.3125 -0.8125
vt 5.3125 -0.4375
vt 5.0625 -0.6875
vt 5.1875 -0.671875
vt 0.25 35.75
vt 1 35.75
vt 1 36
vt 0.25 36
vt 1 35.5
vt 0.25 35.5
vt 18.9375 20
vt 19 19
vt 18.0625 20
vt 18 19
vt 5.359375 -0.484375
vt 5.375 -0.46875
vt 5.375 -0.484375
vt 5.359375 -0.46875
vt 5.375 -0.359375
vt 5.328125 -0.203125
vt 5.40625 -0.359375
vt 5.3125 -0.21875
vt 5.3125 -0.40625
vt 5.3125 -0.421875
vt 5.046875 -0.203125
vt 5.0625 -0.21875
vt 5.0625 -0.40625
vt 5.0625 -0.421875
vt 4.96875 -0.359375
vt 5 -0.359375
usemtl CEMENT4
f 1/1/1 2/2/1 3/3/1 4/4/1
f 5/5/2 6/6/2 7/7/2 8/8/2
f 9/9/3 10/10/3 2/2/3 1/11/3
f 4/12/4 3/3/4 6/13/4 5/14/4
f 11/15/5 12/16/5 10/10/5 9/17/5
f 13/18/6 14/19/6 15/20/6 16/21/6
f 8/22/7 7/7/7 14/19/7 13/23/7
f 16/24/8 15/20/8 17/25/8 18/26/8
f 19/27/8 20/28/8 12/16/8 11/29/8
usemtl 3DTURBAR
f 21/30/8 22/31/8 23/32/8 24/33/8
f 25/34/8 26/35/8 22/31/8 21/30/8
f 27/36/8 28/37/8 26/35/8 25/34/8
usemtl 3DTURBA2
f 24/36/3 23/37/3 20/38/3 19/39/3
f 18/40/7 17/41/7 28/42/7 27/43/7
usemtl 3DEYEROD
f 29/44/4 30/45/4 31/46/4 32/47/4
f 32/44/7 31/45/7 33/46/7 34/47/7
f 34/44/8 33/45/8 35/46/8 36/47/8
f 36/44/3 35/45/3 30/46/3 29/47/3
usemtl CEMENT1
f 37/48/9 38/49/9 39/50/9
f 4/51/10 40/52/10 1/53/10
f 3/54/11 2/55/11 41/56/11
f 42/57/9 43/58/9 44/59/9
f 45/60/9 44/59/9 46/61/9
f 47/62/9 45/60/9 46/61/9
f 48/63/9 47/62/9 46/61/9
f 49/64/9 48/63/9 46/61/9
f 47/62/9 48/63/9 50/65/9
f 51/66/9 47/62/9 50/65/9
f 52/67/9 51/66/9 50/65/9
f 42/57/9 44/59/9 40/52/9
f 49/64/9 46/61/9 53/68/9
f 52/67/9 50/65/9 54/69/9
f 55/70/9 52/67/9 54/69/9
f 49/64/9 53/68/9 42/57/9
f 55/70/9 54/69/9 56/71/9
f 57/72/9 55/70/9 56/71/9
f 49/64/9 42/57/9 40/52/9
f 57/72/9 56/71/9 58/73/9
f 59/74/9 57/72/9 58/73/9
f 49/64/9 40/52/9 60/75/9
f 58/73/9 49/64/9 60/75/9
f 60/75/9 59/74/9 58/73/9
f 29/76/12 61/77/12 36/78/12
f 62/79/12 34/80/12 61/77/12
f 63/81/12 34/80/12 62/79/12
f 64/82/12 34/80/12 63/81/12
f 65/83/12 34/80/12 64/82/12
f 63/81/12 66/84/12 64/82/12
f 67/85/12 66/84/12 63/81/12
f 68/86/12 66/84/12 67/85/12
f 29/76/12 41/56/12 61/77/12
f 65/83/12 32/87/12 34/80/12
f 68/86/12 69/88/12 66/84/12
f 70/89/12 69/88/12 68/86/12
f 65/83/12 29/76/12 32/87/12
f 70/89/12 71/90/12 69/88/12
f 72/91/12 71/90/12 70/89/12
f 65/83/12 41/56/12 29/76/12
f 72/91/12 73/92/12 71/90/12
f 74/93/12 73/92/12 72/91/12
f 65/83/12 75/94/12 41/56/12
f 73/92/12 75/94/12 65/83/12
f 75/94/12 73/92/12 74/93/12
f 8/95/13 59/74/13 5/96/13
f 7/97/14 6/98/14 74/93/14
f 51/66/15 9/99/15 1/53/15
f 67/85/16 2/55/16 10/100/16
f 5/96/17 40/52/17 4/51/17
f 6/98/18 3/54/18 41/56/18
f 51/66/19 11/101/19 9/99/19
f 67/85/20 10/100/20 12/102/20
f 55/70/21 13/103/21 16/104/21
f 70/89/22 15/105/22 14/106/22
f 8/95/23 13/103/23 59/74/23
f 7/97/24 74/93/24 14/106/24
f 13/103/23 57/72/23 59/74/23
f 14/106/24 74/93/24 72/91/24
f 5/96/13 59/74/13 60/75/13
f 6/98/14 75/94/14 74/93/14
f 5/96/17 60/75/17 40/52/17
f 6/98/18 41/56/18 75/94/18
f 40/52/10 45/60/10 1/53/10
f 41/56/11 2/55/11 62/79/11
f 45/60/15 51/66/15 1/53/15
f 62/79/16 2/55/16 67/85/16
f 52/67/19 11/101/19 51/66/19
f 68/86/20 67/85/20 12/102/20
f 76/107/25 77/108/25 19/109/25
f 78/110/26 20/111/26 79/112/26
f 57/72/21 13/103/21 55/70/21
f 72/91/22 70/89/22 14/106/22
f 76/107/27 80/113/27 77/108/27
f 78/110/28 79/112/28 81/114/28
f 18/115/29 80/113/29 76/107/29
f 17/116/30 78/110/30 81/114/30
f 76/107/31 19/109/31 52/67/31
f 78/110/32 68/86/32 20/111/32
f 55/70/19 16/104/19 18/115/19
f 70/89/33 17/116/33 15/105/33
f 55/70/31 18/115/31 76/107/31
f 70/89/32 78/110/32 17/116/32
f 52/67/21 19/109/21 11/101/21
f 68/86/34 12/102/34 20/111/34
f 82/117/9 83/118/9 84/119/9
f 85/120/9 86/121/9 87/122/9
f 38/49/9 87/122/9 88/123/9
f 87/122/9 86/121/9 88/123/9
f 38/49/9 88/123/9 39/50/9
f 89/124/9 84/119/9 39/50/9
f 82/117/9 85/120/9 83/118/9
f 46/61/9 43/58/9 42/57/9
f 53/68/9 46/61/9 42/57/9
f 90/125/9 85/120/9 87/122/9
f 84/119/9 37/48/9 39/50/9
f 91/126/9 87/122/9 38/49/9
f 82/117/9 84/119/9 89/124/9
f 39/50/9 48/63/9 49/64/9
f 89/124/9 39/50/9 49/64/9
f 48/63/9 39/50/9 88/123/9
f 50/65/9 48/63/9 88/123/9
f 89/124/9 49/64/9 58/73/9
f 82/117/9 89/124/9 58/73/9
f 50/65/9 88/123/9 86/121/9
f 54/69/9 50/65/9 86/121/9
f 82/117/9 58/73/9 56/71/9
f 85/120/9 82/117/9 56/71/9
f 54/69/9 86/121/9 85/120/9
f 56/71/9 54/69/9 85/120/9
f 84/119/9 91/126/9 37/48/9
f 90/125/9 87/122/9 91/126/9
f 83/118/9 91/126/9 84/119/9
f 83/118/9 90/125/9 91/126/9
f 85/120/9 90/125/9 83/118/9
f 91/126/9 38/49/9 37/48/9
usemtl 3DTURBRN
f 92/127/35 93/128/35 94/129/35
f 95/130/36 96/131/36 97/132/36
f 98/133/37 99/134/37 100/135/37
f 94/129/38 93/128/38 101/136/38
f 102/137/39 93/128/39 96/131/39
f 95/130/40 97/132/40 98/133/40
f 103/138/41 99/134/41 98/133/41
f 96/131/42 93/128/42 92/127/42
f 104/139/43 94/129/43 99/134/43
f 95/130/36 102/137/36 96/131/36
f 96/131/44 92/127/44 104/139/44
f 103/138/45 104/139/45 99/134/45
f 97/132/46 96/131/46 104/139/46
f 97/132/47 104/139/47 103/138/47
f 98/133/48 97/132/48 103/138/48
f 104/139/49 92/127/49 94/129/49
usemtl 3DTURBA2
f 77/140/50 21/141/50 24/142/50
f 79/140/51 23/142/51 22/141/51
f 19/143/50 77/140/50 24/142/50
f 20/143/51 23/142/51 79/140/51
f 25/144/9 21/142/9 77/143/9
f 80/145/9 25/144/9 77/143/9
f 26/144/12 79/143/12 22/142/12
f 81/145/12 79/143/12 26/144/12
f 18/145/52 27/144/52 80/140/52
f 17/145/53 81/140/53 28/144/53
f 80/140/52 27/144/52 25/141/52
f 81/140/53 26/141/53 28/144/53
usemtl 3DTUREYE
f 94/146/54 101/147/54 99/148/54
f 99/148/55 101/147/55 100/149/55
usemtl FLAT23
f 33/150/12 30/151/12 35/152/12
f 31/153/12 30/151/12 33/150/12
usemtl SHAWN2
f 93/154/12 65/155/12 64/156/12
f 102/157/12 65/155/12 93/154/12
f 64/156/12 101/158/12 93/154/12
f 66/159/12 101/158/12 64/156/12
f 102/157/12 73/160/12 65/155/12
f 95/161/12 73/160/12 102/157/12
f 66/159/12 100/162/12 101/158/12
f 69/163/12 100/162/12 66/159/12
f 95/161/12 71/164/12 73/160/12
f 98/165/12 71/164/12 95/161/12
f 69/163/12 98/165/12 100/162/12
f 71/164/12 98/165/12 69/163/12
